<svg width="576" height="444" viewBox="0 0 576 444" fill="none" xmlns="http://www.w3.org/2000/svg">
<circle cx="283.17" cy="231.828" r="145.971" stroke="white"/>
<circle cx="283.17" cy="232.03" r="119.314" stroke="#008078" stroke-dasharray="5 5"/>
<line x1="282.67" y1="413.475" x2="282.67" y2="52.6382" stroke="white"/>
<path d="M283.17 30.9258L290.098 53.4464H276.242L283.17 30.9258Z" fill="white"/>
<line x1="95.1357" y1="231.328" x2="461.998" y2="231.328" stroke="white"/>
<path d="M484.073 231.828L461.177 238.757V224.9L484.073 231.828Z" fill="white"/>
<line x1="224.433" y1="129.75" x2="342.933" y2="334.998" stroke="#E0E0E0"/>
<line x1="222.567" y1="335.75" x2="341.067" y2="130.502" stroke="#E0E0E0"/>
<line x1="180.75" y1="290.567" x2="385.998" y2="172.067" stroke="#E0E0E0"/>
<line x1="181.25" y1="172.567" x2="386.498" y2="291.067" stroke="#E0E0E0"/>
<path d="M240.79 19.9513H239.95V13.1713H231.69V19.9513H230.85V6.67129H231.69V12.4513H239.95V6.67129H240.79V19.9513ZM242.999 19.9513H242.159V6.67129H242.999V19.9513ZM255.646 19.9513H254.926C254.926 19.8046 254.919 19.238 254.906 18.2513C254.906 17.2513 254.906 16.6713 254.906 16.5113C254.612 17.6313 254.059 18.5646 253.246 19.3113C252.446 20.0446 251.352 20.4113 249.966 20.4113C248.232 20.4113 246.839 19.7313 245.786 18.3713C244.732 17.0113 244.206 15.318 244.206 13.2913C244.206 11.238 244.732 9.55129 245.786 8.23129C246.852 6.89796 248.346 6.23129 250.266 6.23129C251.732 6.23129 252.966 6.65796 253.966 7.51129C254.979 8.36463 255.532 9.45129 255.626 10.7713H254.786C254.692 9.65129 254.212 8.73796 253.346 8.03129C252.479 7.32463 251.452 6.97129 250.266 6.97129C248.626 6.97129 247.346 7.56463 246.426 8.75129C245.519 9.92463 245.066 11.4513 245.066 13.3313C245.066 15.1313 245.519 16.6446 246.426 17.8713C247.332 19.0846 248.552 19.6913 250.086 19.6913C250.926 19.6913 251.666 19.5313 252.306 19.2113C252.946 18.878 253.439 18.4313 253.786 17.8713C254.146 17.3113 254.412 16.7046 254.586 16.0513C254.759 15.398 254.846 14.7046 254.846 13.9713H250.506V13.2713H255.646V19.9513ZM267.001 19.9513H266.161V13.1713H257.901V19.9513H257.061V6.67129H257.901V12.4513H266.161V6.67129H267.001V19.9513ZM284.161 19.9513H283.221L281.821 16.4713H274.801L273.381 19.9513H272.481L277.901 6.67129H278.781L284.161 19.9513ZM281.561 15.7513L278.341 7.73129L275.061 15.7513H281.561ZM294.807 19.9513H293.987V16.4713C293.987 15.618 293.767 14.9846 293.327 14.5713C292.887 14.158 292.073 13.9513 290.887 13.9513H285.967V19.9513H285.147V6.67129H291.327C292.5 6.67129 293.42 6.99129 294.087 7.63129C294.767 8.27129 295.107 9.13129 295.107 10.2113C295.107 11.0913 294.847 11.8446 294.327 12.4713C293.807 13.0846 293.087 13.458 292.167 13.5913C293.1 13.658 293.773 13.918 294.187 14.3713C294.6 14.8246 294.807 15.4913 294.807 16.3713V19.9513ZM285.967 13.2313H291.007C292.127 13.2313 292.953 12.9513 293.487 12.3913C294.033 11.8313 294.307 11.1246 294.307 10.2713C294.307 9.37796 294.033 8.67796 293.487 8.17129C292.953 7.66463 292.193 7.41129 291.207 7.41129H285.967V13.2313ZM301.981 19.6713C303.581 19.6713 304.814 19.1513 305.681 18.1113C306.561 17.058 307.001 15.518 307.001 13.4913C307.001 11.438 306.561 9.84463 305.681 8.71129C304.814 7.57796 303.581 7.01129 301.981 7.01129C300.354 7.01129 299.101 7.57796 298.221 8.71129C297.341 9.83129 296.901 11.4113 296.901 13.4513C296.901 15.478 297.334 17.0246 298.201 18.0913C299.081 19.1446 300.341 19.6713 301.981 19.6713ZM306.321 18.6513C305.321 19.8246 303.874 20.4113 301.981 20.4113C300.088 20.4113 298.628 19.8113 297.601 18.6113C296.574 17.398 296.061 15.6713 296.061 13.4313C296.061 11.1646 296.574 9.39796 297.601 8.13129C298.641 6.86463 300.101 6.23129 301.981 6.23129C303.848 6.23129 305.288 6.87129 306.301 8.15129C307.328 9.41796 307.841 11.198 307.841 13.4913C307.841 15.758 307.334 17.478 306.321 18.6513ZM318.073 15.5313V6.67129H318.933V15.5313C318.933 17.1313 318.5 18.3446 317.633 19.1713C316.766 19.998 315.52 20.4113 313.893 20.4113C312.36 20.4113 311.166 20.018 310.313 19.2313C309.473 18.4313 309.053 17.2513 309.053 15.6913V6.67129H309.913V15.6313C309.913 16.9513 310.26 17.958 310.953 18.6513C311.66 19.3446 312.633 19.6913 313.873 19.6913C315.246 19.6913 316.286 19.3446 316.993 18.6513C317.713 17.9446 318.073 16.9046 318.073 15.5313ZM329.782 10.5913H328.962C328.869 8.17796 327.482 6.97129 324.802 6.97129C323.562 6.97129 322.629 7.23129 322.002 7.75129C321.389 8.25796 321.082 8.95129 321.082 9.83129C321.082 10.9113 321.535 11.6846 322.442 12.1513C322.962 12.4313 323.915 12.6646 325.302 12.8513C326.702 13.0246 327.662 13.218 328.182 13.4313C329.462 13.9513 330.102 14.958 330.102 16.4513C330.102 17.6913 329.669 18.6646 328.802 19.3713C327.935 20.0646 326.742 20.4113 325.222 20.4113C323.649 20.4113 322.389 20.038 321.442 19.2913C320.509 18.5313 320.029 17.4246 320.002 15.9713H320.822C320.835 17.2113 321.242 18.1446 322.042 18.7713C322.855 19.398 323.915 19.7113 325.222 19.7113C326.502 19.7113 327.495 19.4246 328.202 18.8513C328.922 18.2646 329.282 17.458 329.282 16.4313C329.282 15.3113 328.809 14.538 327.862 14.1113C327.369 13.898 326.455 13.718 325.122 13.5713C323.802 13.4113 322.829 13.1913 322.202 12.9113C320.935 12.3513 320.302 11.358 320.302 9.93129C320.302 8.79796 320.675 7.89796 321.422 7.23129C322.182 6.56463 323.309 6.23129 324.802 6.23129C326.375 6.23129 327.589 6.61796 328.442 7.39129C329.295 8.15129 329.742 9.21796 329.782 10.5913ZM341.817 19.9513H340.877L339.477 16.4713H332.457L331.037 19.9513H330.137L335.557 6.67129H336.437L341.817 19.9513ZM339.217 15.7513L335.997 7.73129L332.717 15.7513H339.217ZM351.463 19.9513H342.803V6.67129H343.643V19.2113H351.463V19.9513Z" fill="white"/>
<path d="M232.01 438.449H223.35V425.169H224.19V437.709H232.01V438.449ZM238.016 438.169C239.616 438.169 240.85 437.649 241.716 436.609C242.596 435.556 243.036 434.016 243.036 431.989C243.036 429.936 242.596 428.342 241.716 427.209C240.85 426.076 239.616 425.509 238.016 425.509C236.39 425.509 235.136 426.076 234.256 427.209C233.376 428.329 232.936 429.909 232.936 431.949C232.936 433.976 233.37 435.522 234.236 436.589C235.116 437.642 236.376 438.169 238.016 438.169ZM242.356 437.149C241.356 438.322 239.91 438.909 238.016 438.909C236.123 438.909 234.663 438.309 233.636 437.109C232.61 435.896 232.096 434.169 232.096 431.929C232.096 429.662 232.61 427.896 233.636 426.629C234.676 425.362 236.136 424.729 238.016 424.729C239.883 424.729 241.323 425.369 242.336 426.649C243.363 427.916 243.876 429.696 243.876 431.989C243.876 434.256 243.37 435.976 242.356 437.149ZM255.617 438.449H254.757L251.297 426.569L247.817 438.449H246.997L243.477 425.169H244.357L247.437 437.029L250.837 425.169H251.737L255.197 437.029L258.257 425.169H259.117L255.617 438.449ZM275.88 438.449H274.94L273.54 434.969H266.52L265.1 438.449H264.2L269.62 425.169H270.5L275.88 438.449ZM273.28 434.249L270.06 426.229L266.78 434.249H273.28ZM286.526 438.449H285.706V434.969C285.706 434.116 285.486 433.482 285.046 433.069C284.606 432.656 283.792 432.449 282.606 432.449H277.686V438.449H276.866V425.169H283.046C284.219 425.169 285.139 425.489 285.806 426.129C286.486 426.769 286.826 427.629 286.826 428.709C286.826 429.589 286.566 430.342 286.046 430.969C285.526 431.582 284.806 431.956 283.886 432.089C284.819 432.156 285.492 432.416 285.906 432.869C286.319 433.322 286.526 433.989 286.526 434.869V438.449ZM277.686 431.729H282.726C283.846 431.729 284.672 431.449 285.206 430.889C285.752 430.329 286.026 429.622 286.026 428.769C286.026 427.876 285.752 427.176 285.206 426.669C284.672 426.162 283.912 425.909 282.926 425.909H277.686V431.729ZM293.7 438.169C295.3 438.169 296.533 437.649 297.4 436.609C298.28 435.556 298.72 434.016 298.72 431.989C298.72 429.936 298.28 428.342 297.4 427.209C296.533 426.076 295.3 425.509 293.7 425.509C292.073 425.509 290.82 426.076 289.94 427.209C289.06 428.329 288.62 429.909 288.62 431.949C288.62 433.976 289.053 435.522 289.92 436.589C290.8 437.642 292.06 438.169 293.7 438.169ZM298.04 437.149C297.04 438.322 295.593 438.909 293.7 438.909C291.806 438.909 290.346 438.309 289.32 437.109C288.293 435.896 287.78 434.169 287.78 431.929C287.78 429.662 288.293 427.896 289.32 426.629C290.36 425.362 291.82 424.729 293.7 424.729C295.566 424.729 297.006 425.369 298.02 426.649C299.046 427.916 299.56 429.696 299.56 431.989C299.56 434.256 299.053 435.976 298.04 437.149ZM309.792 434.029V425.169H310.652V434.029C310.652 435.629 310.218 436.842 309.352 437.669C308.485 438.496 307.238 438.909 305.612 438.909C304.078 438.909 302.885 438.516 302.032 437.729C301.192 436.929 300.772 435.749 300.772 434.189V425.169H301.632V434.129C301.632 435.449 301.978 436.456 302.672 437.149C303.378 437.842 304.352 438.189 305.592 438.189C306.965 438.189 308.005 437.842 308.712 437.149C309.432 436.442 309.792 435.402 309.792 434.029ZM321.501 429.089H320.681C320.588 426.676 319.201 425.469 316.521 425.469C315.281 425.469 314.348 425.729 313.721 426.249C313.108 426.756 312.801 427.449 312.801 428.329C312.801 429.409 313.254 430.182 314.161 430.649C314.681 430.929 315.634 431.162 317.021 431.349C318.421 431.522 319.381 431.716 319.901 431.929C321.181 432.449 321.821 433.456 321.821 434.949C321.821 436.189 321.388 437.162 320.521 437.869C319.654 438.562 318.461 438.909 316.941 438.909C315.368 438.909 314.108 438.536 313.161 437.789C312.228 437.029 311.748 435.922 311.721 434.469H312.541C312.554 435.709 312.961 436.642 313.761 437.269C314.574 437.896 315.634 438.209 316.941 438.209C318.221 438.209 319.214 437.922 319.921 437.349C320.641 436.762 321.001 435.956 321.001 434.929C321.001 433.809 320.528 433.036 319.581 432.609C319.088 432.396 318.174 432.216 316.841 432.069C315.521 431.909 314.548 431.689 313.921 431.409C312.654 430.849 312.021 429.856 312.021 428.429C312.021 427.296 312.394 426.396 313.141 425.729C313.901 425.062 315.028 424.729 316.521 424.729C318.094 424.729 319.308 425.116 320.161 425.889C321.014 426.649 321.461 427.716 321.501 429.089ZM333.536 438.449H332.596L331.196 434.969H324.176L322.756 438.449H321.856L327.276 425.169H328.156L333.536 438.449ZM330.936 434.249L327.716 426.229L324.436 434.249H330.936ZM343.182 438.449H334.522V425.169H335.362V437.709H343.182V438.449Z" fill="white"/>
<path d="M10.8441 227.03H10.0241L1.64406 215.03V227.03H0.844063V213.75H1.78406L10.0441 225.65V213.75H10.8441V227.03ZM21.5508 227.03H12.2308V213.75H21.2508V214.49H13.0508V219.69H20.7308V220.41H13.0508V226.29H21.5508V227.03ZM33.7452 227.03H33.0252C33.0252 226.883 33.0185 226.317 33.0052 225.33C33.0052 224.33 33.0052 223.75 33.0052 223.59C32.7118 224.71 32.1585 225.643 31.3452 226.39C30.5452 227.123 29.4518 227.49 28.0652 227.49C26.3318 227.49 24.9385 226.81 23.8852 225.45C22.8318 224.09 22.3052 222.397 22.3052 220.37C22.3052 218.317 22.8318 216.63 23.8852 215.31C24.9518 213.977 26.4452 213.31 28.3652 213.31C29.8318 213.31 31.0652 213.737 32.0652 214.59C33.0785 215.443 33.6318 216.53 33.7252 217.85H32.8852C32.7918 216.73 32.3118 215.817 31.4452 215.11C30.5785 214.403 29.5518 214.05 28.3652 214.05C26.7252 214.05 25.4452 214.643 24.5252 215.83C23.6185 217.003 23.1652 218.53 23.1652 220.41C23.1652 222.21 23.6185 223.723 24.5252 224.95C25.4318 226.163 26.6518 226.77 28.1852 226.77C29.0252 226.77 29.7652 226.61 30.4052 226.29C31.0452 225.957 31.5385 225.51 31.8852 224.95C32.2452 224.39 32.5118 223.783 32.6852 223.13C32.8585 222.477 32.9452 221.783 32.9452 221.05H28.6052V220.35H33.7452V227.03ZM46.4405 227.03H45.5005L44.1005 223.55H37.0805L35.6605 227.03H34.7605L40.1805 213.75H41.0605L46.4405 227.03ZM43.8405 222.83L40.6205 214.81L37.3405 222.83H43.8405ZM48.4036 227.03H47.5636V214.49H42.9836V213.75H52.9636V214.49H48.4036V227.03ZM54.8481 227.03H54.0081V213.75H54.8481V227.03ZM61.5352 227.03H60.8152L55.8152 213.75H56.7152L61.1752 225.75L65.6952 213.75H66.5552L61.5352 227.03ZM76.9023 227.03H67.5823V213.75H76.6023V214.49H68.4023V219.69H76.0823V220.41H68.4023V226.29H76.9023V227.03ZM8.09766 251.03H7.37766L2.37766 237.75H3.27766L7.73766 249.75L12.2577 237.75H13.1177L8.09766 251.03ZM21.6163 251.03H20.6762L19.2763 247.55H12.2563L10.8363 251.03H9.93625L15.3563 237.75H16.2363L21.6163 251.03ZM19.0163 246.83L15.7963 238.81L12.5163 246.83H19.0163ZM31.2619 251.03H22.6019V237.75H23.4419V250.29H31.2619V251.03ZM41.6094 251.03H32.2894V237.75H41.3094V238.49H33.1094V243.69H40.7894V244.41H33.1094V250.29H41.6094V251.03ZM52.5238 251.03H51.7038L43.3238 239.03V251.03H42.5238V237.75H43.4638L51.7238 249.65V237.75H52.5238V251.03ZM63.8705 246.47H64.7305C64.4638 248.003 63.8638 249.223 62.9305 250.13C61.9971 251.037 60.8305 251.49 59.4305 251.49C57.7505 251.49 56.3838 250.89 55.3305 249.69C54.2771 248.477 53.7505 246.763 53.7505 244.55C53.7505 242.31 54.2638 240.543 55.2905 239.25C56.3171 237.957 57.7105 237.31 59.4705 237.31C60.9638 237.31 62.1771 237.763 63.1105 238.67C64.0571 239.577 64.5971 240.723 64.7305 242.11H63.8705C63.7238 240.91 63.2505 239.937 62.4505 239.19C61.6638 238.443 60.6771 238.07 59.4905 238.07C57.9705 238.07 56.7771 238.643 55.9105 239.79C55.0438 240.937 54.6105 242.51 54.6105 244.51C54.6105 246.497 55.0505 248.037 55.9305 249.13C56.8105 250.21 57.9705 250.75 59.4105 250.75C60.5705 250.75 61.5371 250.37 62.3105 249.61C63.0971 248.837 63.6171 247.79 63.8705 246.47ZM74.9688 251.03H65.6488V237.75H74.6688V238.49H66.4688V243.69H74.1488V244.41H66.4688V250.29H74.9688V251.03Z" fill="white"/>
<path d="M505.325 227.025H504.485V213.745H509.985C511.131 213.745 512.058 214.145 512.765 214.945C513.485 215.745 513.845 216.745 513.845 217.945C513.845 219.132 513.491 220.105 512.785 220.865C512.078 221.625 511.145 222.005 509.985 222.005H505.325V227.025ZM505.325 221.285H509.865C510.865 221.285 511.651 220.979 512.225 220.365C512.798 219.739 513.085 218.925 513.085 217.925C513.085 216.939 512.791 216.119 512.205 215.465C511.631 214.812 510.851 214.485 509.865 214.485H505.325V221.285ZM520.518 226.745C522.118 226.745 523.351 226.225 524.218 225.185C525.098 224.132 525.538 222.592 525.538 220.565C525.538 218.512 525.098 216.919 524.218 215.785C523.351 214.652 522.118 214.085 520.518 214.085C518.891 214.085 517.638 214.652 516.758 215.785C515.878 216.905 515.438 218.485 515.438 220.525C515.438 222.552 515.871 224.099 516.738 225.165C517.618 226.219 518.878 226.745 520.518 226.745ZM524.858 225.725C523.858 226.899 522.411 227.485 520.518 227.485C518.625 227.485 517.165 226.885 516.138 225.685C515.111 224.472 514.598 222.745 514.598 220.505C514.598 218.239 515.111 216.472 516.138 215.205C517.178 213.939 518.638 213.305 520.518 213.305C522.385 213.305 523.825 213.945 524.838 215.225C525.865 216.492 526.378 218.272 526.378 220.565C526.378 222.832 525.871 224.552 524.858 225.725ZM536.835 217.665H536.015C535.922 215.252 534.535 214.045 531.855 214.045C530.615 214.045 529.682 214.305 529.055 214.825C528.442 215.332 528.135 216.025 528.135 216.905C528.135 217.985 528.588 218.759 529.495 219.225C530.015 219.505 530.968 219.739 532.355 219.925C533.755 220.099 534.715 220.292 535.235 220.505C536.515 221.025 537.155 222.032 537.155 223.525C537.155 224.765 536.722 225.739 535.855 226.445C534.988 227.139 533.795 227.485 532.275 227.485C530.702 227.485 529.442 227.112 528.495 226.365C527.562 225.605 527.082 224.499 527.055 223.045H527.875C527.888 224.285 528.295 225.219 529.095 225.845C529.908 226.472 530.968 226.785 532.275 226.785C533.555 226.785 534.548 226.499 535.255 225.925C535.975 225.339 536.335 224.532 536.335 223.505C536.335 222.385 535.862 221.612 534.915 221.185C534.422 220.972 533.508 220.792 532.175 220.645C530.855 220.485 529.882 220.265 529.255 219.985C527.988 219.425 527.355 218.432 527.355 217.005C527.355 215.872 527.728 214.972 528.475 214.305C529.235 213.639 530.362 213.305 531.855 213.305C533.428 213.305 534.642 213.692 535.495 214.465C536.348 215.225 536.795 216.292 536.835 217.665ZM539.055 227.025H538.215V213.745H539.055V227.025ZM545.462 227.025H544.622V214.485H540.042V213.745H550.022V214.485H545.462V227.025ZM551.907 227.025H551.067V213.745H551.907V227.025ZM558.594 227.025H557.874L552.874 213.745H553.774L558.234 225.745L562.754 213.745H563.614L558.594 227.025ZM573.961 227.025H564.641V213.745H573.661V214.485H565.461V219.685H573.141V220.405H565.461V226.285H573.961V227.025ZM508.447 251.025H507.727L502.727 237.745H503.627L508.087 249.745L512.607 237.745H513.467L508.447 251.025ZM521.966 251.025H521.026L519.626 247.545H512.606L511.186 251.025H510.286L515.706 237.745H516.586L521.966 251.025ZM519.366 246.825L516.146 238.805L512.866 246.825H519.366ZM531.611 251.025H522.951V237.745H523.791V250.285H531.611V251.025ZM541.959 251.025H532.639V237.745H541.659V238.485H533.459V243.685H541.139V244.405H533.459V250.285H541.959V251.025ZM552.873 251.025H552.053L543.673 239.025V251.025H542.873V237.745H543.813L552.073 249.645V237.745H552.873V251.025ZM564.22 246.465H565.08C564.813 247.999 564.213 249.219 563.28 250.125C562.347 251.032 561.18 251.485 559.78 251.485C558.1 251.485 556.733 250.885 555.68 249.685C554.627 248.472 554.1 246.759 554.1 244.545C554.1 242.305 554.613 240.539 555.64 239.245C556.667 237.952 558.06 237.305 559.82 237.305C561.313 237.305 562.527 237.759 563.46 238.665C564.407 239.572 564.947 240.719 565.08 242.105H564.22C564.073 240.905 563.6 239.932 562.8 239.185C562.013 238.439 561.027 238.065 559.84 238.065C558.32 238.065 557.127 238.639 556.26 239.785C555.393 240.932 554.96 242.505 554.96 244.505C554.96 246.492 555.4 248.032 556.28 249.125C557.16 250.205 558.32 250.745 559.76 250.745C560.92 250.745 561.887 250.365 562.66 249.605C563.447 248.832 563.967 247.785 564.22 246.465ZM575.318 251.025H565.998V237.745H575.018V238.485H566.818V243.685H574.498V244.405H566.818V250.285H575.318V251.025Z" fill="white"/>
<path d="M61.8421 82.5299H60.6121C60.4721 78.9099 58.3921 77.0999 54.3721 77.0999C52.5121 77.0999 51.1121 77.4899 50.1721 78.2699C49.2521 79.0299 48.7921 80.0699 48.7921 81.3899C48.7921 83.0099 49.4721 84.1699 50.8321 84.8699C51.6121 85.2899 53.0421 85.6399 55.1221 85.9199C57.2221 86.1799 58.6621 86.4699 59.4421 86.7899C61.3621 87.5699 62.3221 89.0799 62.3221 91.3199C62.3221 93.1799 61.6721 94.6399 60.3721 95.6999C59.0721 96.7399 57.2821 97.2599 55.0021 97.2599C52.6421 97.2599 50.7521 96.6999 49.3321 95.5799C47.9321 94.4399 47.2121 92.7799 47.1721 90.5999H48.4021C48.4221 92.4599 49.0321 93.8599 50.2321 94.7999C51.4521 95.7399 53.0421 96.2099 55.0021 96.2099C56.9221 96.2099 58.4121 95.7799 59.4721 94.9199C60.5521 94.0399 61.0921 92.8299 61.0921 91.2899C61.0921 89.6099 60.3821 88.4499 58.9621 87.8099C58.2221 87.4899 56.8521 87.2199 54.8521 86.9999C52.8721 86.7599 51.4121 86.4299 50.4721 86.0099C48.5721 85.1699 47.6221 83.6799 47.6221 81.5399C47.6221 79.8399 48.1821 78.4899 49.3021 77.4899C50.4421 76.4899 52.1321 75.9899 54.3721 75.9899C56.7321 75.9899 58.5521 76.5699 59.8321 77.7299C61.1121 78.8699 61.7821 80.4699 61.8421 82.5299ZM77.8926 96.5699H63.9126V76.6499H77.4426V77.7599H65.1426V85.5599H76.6626V86.6399H65.1426V95.4599H77.8926V96.5699ZM87.2441 96.5699H86.1641L78.6641 76.6499H80.0141L86.7041 94.6499L93.4841 76.6499H94.7741L87.2441 96.5699ZM110.295 96.5699H96.3149V76.6499H109.845V77.7599H97.5449V85.5599H109.065V86.6399H97.5449V95.4599H110.295V96.5699ZM126.156 96.5699H124.926V91.3499C124.926 90.0699 124.596 89.1199 123.936 88.4999C123.276 87.8799 122.056 87.5699 120.276 87.5699H112.896V96.5699H111.666V76.6499H120.936C122.696 76.6499 124.076 77.1299 125.076 78.0899C126.096 79.0499 126.606 80.3399 126.606 81.9599C126.606 83.2799 126.216 84.4099 125.436 85.3499C124.656 86.2699 123.576 86.8299 122.196 87.0299C123.596 87.1299 124.606 87.5199 125.226 88.1999C125.846 88.8799 126.156 89.8799 126.156 91.1999V96.5699ZM112.896 86.4899H120.456C122.136 86.4899 123.376 86.0699 124.176 85.2299C124.996 84.3899 125.406 83.3299 125.406 82.0499C125.406 80.7099 124.996 79.6599 124.176 78.8999C123.376 78.1399 122.236 77.7599 120.756 77.7599H112.896V86.4899ZM142.258 96.5699H128.278V76.6499H141.808V77.7599H129.508V85.5599H141.028V86.6399H129.508V95.4599H142.258V96.5699ZM61.9739 112.53H60.7439C60.6039 108.91 58.5239 107.1 54.5039 107.1C52.6439 107.1 51.2439 107.49 50.3039 108.27C49.3839 109.03 48.9239 110.07 48.9239 111.39C48.9239 113.01 49.6039 114.17 50.9639 114.87C51.7439 115.29 53.1739 115.64 55.2539 115.92C57.3539 116.18 58.7939 116.47 59.5739 116.79C61.4939 117.57 62.4539 119.08 62.4539 121.32C62.4539 123.18 61.8039 124.64 60.5039 125.7C59.2039 126.74 57.4139 127.26 55.1339 127.26C52.7739 127.26 50.8839 126.7 49.4639 125.58C48.0639 124.44 47.3439 122.78 47.3039 120.6H48.5339C48.5539 122.46 49.1639 123.86 50.3639 124.8C51.5839 125.74 53.1739 126.21 55.1339 126.21C57.0539 126.21 58.5439 125.78 59.6039 124.92C60.6839 124.04 61.2239 122.83 61.2239 121.29C61.2239 119.61 60.5139 118.45 59.0939 117.81C58.3539 117.49 56.9839 117.22 54.9839 117C53.0039 116.76 51.5439 116.43 50.6039 116.01C48.7039 115.17 47.7539 113.68 47.7539 111.54C47.7539 109.84 48.3139 108.49 49.4339 107.49C50.5739 106.49 52.2639 105.99 54.5039 105.99C56.8639 105.99 58.6839 106.57 59.9639 107.73C61.2439 108.87 61.9139 110.47 61.9739 112.53ZM70.6669 126.57H69.4069V107.76H62.5369V106.65H77.5069V107.76H70.6669V126.57ZM93.5637 126.57H92.3337V121.35C92.3337 120.07 92.0037 119.12 91.3437 118.5C90.6837 117.88 89.4637 117.57 87.6837 117.57H80.3037V126.57H79.0737V106.65H88.3437C90.1037 106.65 91.4837 107.13 92.4837 108.09C93.5037 109.05 94.0137 110.34 94.0137 111.96C94.0137 113.28 93.6237 114.41 92.8437 115.35C92.0637 116.27 90.9837 116.83 89.6037 117.03C91.0037 117.13 92.0137 117.52 92.6337 118.2C93.2537 118.88 93.5637 119.88 93.5637 121.2V126.57ZM80.3037 116.49H87.8637C89.5437 116.49 90.7837 116.07 91.5837 115.23C92.4037 114.39 92.8137 113.33 92.8137 112.05C92.8137 110.71 92.4037 109.66 91.5837 108.9C90.7837 108.14 89.6437 107.76 88.1637 107.76H80.3037V116.49ZM109.665 126.57H95.685V106.65H109.215V107.76H96.915V115.56H108.435V116.64H96.915V125.46H109.665V126.57ZM125.197 112.53H123.967C123.827 108.91 121.747 107.1 117.727 107.1C115.867 107.1 114.467 107.49 113.527 108.27C112.607 109.03 112.147 110.07 112.147 111.39C112.147 113.01 112.827 114.17 114.187 114.87C114.967 115.29 116.397 115.64 118.477 115.92C120.577 116.18 122.017 116.47 122.797 116.79C124.717 117.57 125.677 119.08 125.677 121.32C125.677 123.18 125.027 124.64 123.727 125.7C122.427 126.74 120.637 127.26 118.357 127.26C115.997 127.26 114.107 126.7 112.687 125.58C111.287 124.44 110.567 122.78 110.527 120.6H111.757C111.777 122.46 112.387 123.86 113.587 124.8C114.807 125.74 116.397 126.21 118.357 126.21C120.277 126.21 121.767 125.78 122.827 124.92C123.907 124.04 124.447 122.83 124.447 121.29C124.447 119.61 123.737 118.45 122.317 117.81C121.577 117.49 120.207 117.22 118.207 117C116.227 116.76 114.767 116.43 113.827 116.01C111.927 115.17 110.977 113.68 110.977 111.54C110.977 109.84 111.537 108.49 112.657 107.49C113.797 106.49 115.487 105.99 117.727 105.99C120.087 105.99 121.907 106.57 123.187 107.73C124.467 108.87 125.137 110.47 125.197 112.53ZM141.427 112.53H140.197C140.057 108.91 137.977 107.1 133.957 107.1C132.097 107.1 130.697 107.49 129.757 108.27C128.837 109.03 128.377 110.07 128.377 111.39C128.377 113.01 129.057 114.17 130.417 114.87C131.197 115.29 132.627 115.64 134.707 115.92C136.807 116.18 138.247 116.47 139.027 116.79C140.947 117.57 141.907 119.08 141.907 121.32C141.907 123.18 141.257 124.64 139.957 125.7C138.657 126.74 136.867 127.26 134.587 127.26C132.227 127.26 130.337 126.7 128.917 125.58C127.517 124.44 126.797 122.78 126.757 120.6H127.987C128.007 122.46 128.617 123.86 129.817 124.8C131.037 125.74 132.627 126.21 134.587 126.21C136.507 126.21 137.997 125.78 139.057 124.92C140.137 124.04 140.677 122.83 140.677 121.29C140.677 119.61 139.967 118.45 138.547 117.81C137.807 117.49 136.437 117.22 134.437 117C132.457 116.76 130.997 116.43 130.057 116.01C128.157 115.17 127.207 113.68 127.207 111.54C127.207 109.84 127.767 108.49 128.887 107.49C130.027 106.49 131.717 105.99 133.957 105.99C136.317 105.99 138.137 106.57 139.417 107.73C140.697 108.87 141.367 110.47 141.427 112.53Z" fill="url(#paint0_linear_141_16)"/>
<path d="M85.8641 343.677H84.6641V325.587L77.6441 343.677H76.2941L69.2141 325.587V343.677H68.0141V323.757H69.9341L76.9841 342.147L84.0041 323.757H85.8641V343.677ZM89.2253 343.677H87.9653V323.757H89.2253V343.677ZM104.266 343.677H91.2759V323.757H92.5359V342.567H104.266V343.677ZM107.037 342.627H113.307C115.427 342.627 117.097 341.807 118.317 340.167C119.557 338.507 120.177 336.287 120.177 333.507C120.177 330.787 119.517 328.667 118.197 327.147C116.877 325.627 115.077 324.867 112.797 324.867H107.037V342.627ZM113.517 343.677H105.807V323.757H112.917C115.457 323.757 117.517 324.637 119.097 326.397C120.677 328.157 121.467 330.527 121.467 333.507C121.467 336.547 120.737 339.007 119.277 340.887C117.817 342.747 115.897 343.677 113.517 343.677ZM61.9739 359.637H60.7439C60.6039 356.017 58.5239 354.207 54.5039 354.207C52.6439 354.207 51.2439 354.597 50.3039 355.377C49.3839 356.137 48.9239 357.177 48.9239 358.497C48.9239 360.117 49.6039 361.277 50.9639 361.977C51.7439 362.397 53.1739 362.747 55.2539 363.027C57.3539 363.287 58.7939 363.577 59.5739 363.897C61.4939 364.677 62.4539 366.187 62.4539 368.427C62.4539 370.287 61.8039 371.747 60.5039 372.807C59.2039 373.847 57.4139 374.367 55.1339 374.367C52.7739 374.367 50.8839 373.807 49.4639 372.687C48.0639 371.547 47.3439 369.887 47.3039 367.707H48.5339C48.5539 369.567 49.1639 370.967 50.3639 371.907C51.5839 372.847 53.1739 373.317 55.1339 373.317C57.0539 373.317 58.5439 372.887 59.6039 372.027C60.6839 371.147 61.2239 369.937 61.2239 368.397C61.2239 366.717 60.5139 365.557 59.0939 364.917C58.3539 364.597 56.9839 364.327 54.9839 364.107C53.0039 363.867 51.5439 363.537 50.6039 363.117C48.7039 362.277 47.7539 360.787 47.7539 358.647C47.7539 356.947 48.3139 355.597 49.4339 354.597C50.5739 353.597 52.2639 353.097 54.5039 353.097C56.8639 353.097 58.6839 353.677 59.9639 354.837C61.2439 355.977 61.9139 357.577 61.9739 359.637ZM70.6669 373.677H69.4069V354.867H62.5369V353.757H77.5069V354.867H70.6669V373.677ZM93.5637 373.677H92.3337V368.457C92.3337 367.177 92.0037 366.227 91.3437 365.607C90.6837 364.987 89.4637 364.677 87.6837 364.677H80.3037V373.677H79.0737V353.757H88.3437C90.1037 353.757 91.4837 354.237 92.4837 355.197C93.5037 356.157 94.0137 357.447 94.0137 359.067C94.0137 360.387 93.6237 361.517 92.8437 362.457C92.0637 363.377 90.9837 363.937 89.6037 364.137C91.0037 364.237 92.0137 364.627 92.6337 365.307C93.2537 365.987 93.5637 366.987 93.5637 368.307V373.677ZM80.3037 363.597H87.8637C89.5437 363.597 90.7837 363.177 91.5837 362.337C92.4037 361.497 92.8137 360.437 92.8137 359.157C92.8137 357.817 92.4037 356.767 91.5837 356.007C90.7837 355.247 89.6437 354.867 88.1637 354.867H80.3037V363.597ZM109.665 373.677H95.685V353.757H109.215V354.867H96.915V362.667H108.435V363.747H96.915V372.567H109.665V373.677ZM125.197 359.637H123.967C123.827 356.017 121.747 354.207 117.727 354.207C115.867 354.207 114.467 354.597 113.527 355.377C112.607 356.137 112.147 357.177 112.147 358.497C112.147 360.117 112.827 361.277 114.187 361.977C114.967 362.397 116.397 362.747 118.477 363.027C120.577 363.287 122.017 363.577 122.797 363.897C124.717 364.677 125.677 366.187 125.677 368.427C125.677 370.287 125.027 371.747 123.727 372.807C122.427 373.847 120.637 374.367 118.357 374.367C115.997 374.367 114.107 373.807 112.687 372.687C111.287 371.547 110.567 369.887 110.527 367.707H111.757C111.777 369.567 112.387 370.967 113.587 371.907C114.807 372.847 116.397 373.317 118.357 373.317C120.277 373.317 121.767 372.887 122.827 372.027C123.907 371.147 124.447 369.937 124.447 368.397C124.447 366.717 123.737 365.557 122.317 364.917C121.577 364.597 120.207 364.327 118.207 364.107C116.227 363.867 114.767 363.537 113.827 363.117C111.927 362.277 110.977 360.787 110.977 358.647C110.977 356.947 111.537 355.597 112.657 354.597C113.797 353.597 115.487 353.097 117.727 353.097C120.087 353.097 121.907 353.677 123.187 354.837C124.467 355.977 125.137 357.577 125.197 359.637ZM141.427 359.637H140.197C140.057 356.017 137.977 354.207 133.957 354.207C132.097 354.207 130.697 354.597 129.757 355.377C128.837 356.137 128.377 357.177 128.377 358.497C128.377 360.117 129.057 361.277 130.417 361.977C131.197 362.397 132.627 362.747 134.707 363.027C136.807 363.287 138.247 363.577 139.027 363.897C140.947 364.677 141.907 366.187 141.907 368.427C141.907 370.287 141.257 371.747 139.957 372.807C138.657 373.847 136.867 374.367 134.587 374.367C132.227 374.367 130.337 373.807 128.917 372.687C127.517 371.547 126.797 369.887 126.757 367.707H127.987C128.007 369.567 128.617 370.967 129.817 371.907C131.037 372.847 132.627 373.317 134.587 373.317C136.507 373.317 137.997 372.887 139.057 372.027C140.137 371.147 140.677 369.937 140.677 368.397C140.677 366.717 139.967 365.557 138.547 364.917C137.807 364.597 136.437 364.327 134.437 364.107C132.457 363.867 130.997 363.537 130.057 363.117C128.157 362.277 127.207 360.787 127.207 358.647C127.207 356.947 127.767 355.597 128.887 354.597C130.027 353.597 131.717 353.097 133.957 353.097C136.317 353.097 138.137 353.677 139.417 354.837C140.697 355.977 141.367 357.577 141.427 359.637Z" fill="url(#paint1_linear_141_16)"/>
<path d="M433.856 358.677H432.626V353.457C432.626 352.177 432.296 351.227 431.636 350.607C430.976 349.987 429.756 349.677 427.976 349.677H420.596V358.677H419.366V338.757H428.636C430.396 338.757 431.776 339.237 432.776 340.197C433.796 341.157 434.306 342.447 434.306 344.067C434.306 345.387 433.916 346.517 433.136 347.457C432.356 348.377 431.276 348.937 429.896 349.137C431.296 349.237 432.306 349.627 432.926 350.307C433.546 350.987 433.856 351.987 433.856 353.307V358.677ZM420.596 348.597H428.156C429.836 348.597 431.076 348.177 431.876 347.337C432.696 346.497 433.106 345.437 433.106 344.157C433.106 342.817 432.696 341.767 431.876 341.007C431.076 340.247 429.936 339.867 428.456 339.867H420.596V348.597ZM449.957 358.677H435.977V338.757H449.507V339.867H437.207V347.667H448.727V348.747H437.207V357.567H449.957V358.677ZM466.269 351.837H467.559C467.159 354.137 466.259 355.967 464.859 357.327C463.459 358.687 461.709 359.367 459.609 359.367C457.089 359.367 455.039 358.467 453.459 356.667C451.879 354.847 451.089 352.277 451.089 348.957C451.089 345.597 451.859 342.947 453.399 341.007C454.939 339.067 457.029 338.097 459.669 338.097C461.909 338.097 463.729 338.777 465.129 340.137C466.549 341.497 467.359 343.217 467.559 345.297H466.269C466.049 343.497 465.339 342.037 464.139 340.917C462.959 339.797 461.479 339.237 459.699 339.237C457.419 339.237 455.629 340.097 454.329 341.817C453.029 343.537 452.379 345.897 452.379 348.897C452.379 351.877 453.039 354.187 454.359 355.827C455.679 357.447 457.419 358.257 459.579 358.257C461.319 358.257 462.769 357.687 463.929 356.547C465.109 355.387 465.889 353.817 466.269 351.837ZM477.576 358.257C479.976 358.257 481.826 357.477 483.126 355.917C484.446 354.337 485.106 352.027 485.106 348.987C485.106 345.907 484.446 343.517 483.126 341.817C481.826 340.117 479.976 339.267 477.576 339.267C475.136 339.267 473.256 340.117 471.936 341.817C470.616 343.497 469.956 345.867 469.956 348.927C469.956 351.967 470.606 354.287 471.906 355.887C473.226 357.467 475.116 358.257 477.576 358.257ZM484.086 356.727C482.586 358.487 480.416 359.367 477.576 359.367C474.736 359.367 472.546 358.467 471.006 356.667C469.466 354.847 468.696 352.257 468.696 348.897C468.696 345.497 469.466 342.847 471.006 340.947C472.566 339.047 474.756 338.097 477.576 338.097C480.376 338.097 482.536 339.057 484.056 340.977C485.596 342.877 486.366 345.547 486.366 348.987C486.366 352.387 485.606 354.967 484.086 356.727ZM494.084 358.677H493.004L485.504 338.757H486.854L493.544 356.757L500.324 338.757H501.614L494.084 358.677ZM517.135 358.677H503.155V338.757H516.685V339.867H504.385V347.667H515.905V348.747H504.385V357.567H517.135V358.677ZM532.996 358.677H531.766V353.457C531.766 352.177 531.436 351.227 530.776 350.607C530.116 349.987 528.896 349.677 527.116 349.677H519.736V358.677H518.506V338.757H527.776C529.536 338.757 530.916 339.237 531.916 340.197C532.936 341.157 533.446 342.447 533.446 344.067C533.446 345.387 533.056 346.517 532.276 347.457C531.496 348.377 530.416 348.937 529.036 349.137C530.436 349.237 531.446 349.627 532.066 350.307C532.686 350.987 532.996 351.987 532.996 353.307V358.677ZM519.736 348.597H527.296C528.976 348.597 530.216 348.177 531.016 347.337C531.836 346.497 532.246 345.437 532.246 344.157C532.246 342.817 531.836 341.767 531.016 341.007C530.216 340.247 529.076 339.867 527.596 339.867H519.736V348.597ZM541.786 358.677H540.526V350.217L532.936 338.757H534.436L541.186 348.927L547.846 338.757H549.346L541.786 350.217V358.677Z" fill="url(#paint2_linear_141_16)"/>
<path d="M425.232 100.57H424.032V82.4799L417.012 100.57H415.662L408.582 82.4799V100.57H407.382V80.6499H409.302L416.352 99.0399L423.372 80.6499H425.232V100.57ZM435.973 100.15C438.373 100.15 440.223 99.3699 441.523 97.8099C442.843 96.2299 443.503 93.9199 443.503 90.8799C443.503 87.7999 442.843 85.4099 441.523 83.7099C440.223 82.0099 438.373 81.1599 435.973 81.1599C433.533 81.1599 431.653 82.0099 430.333 83.7099C429.013 85.3899 428.353 87.7599 428.353 90.8199C428.353 93.8599 429.003 96.1799 430.303 97.7799C431.623 99.3599 433.513 100.15 435.973 100.15ZM442.483 98.6199C440.983 100.38 438.813 101.26 435.973 101.26C433.133 101.26 430.943 100.36 429.403 98.5599C427.863 96.7399 427.093 94.1499 427.093 90.7899C427.093 87.3899 427.863 84.7399 429.403 82.8399C430.963 80.9399 433.153 79.9899 435.973 79.9899C438.773 79.9899 440.933 80.9499 442.453 82.8699C443.993 84.7699 444.763 87.4399 444.763 90.8799C444.763 94.2799 444.003 96.8599 442.483 98.6199ZM447.812 99.5199H454.082C456.202 99.5199 457.872 98.6999 459.092 97.0599C460.332 95.3999 460.952 93.1799 460.952 90.3999C460.952 87.6799 460.292 85.5599 458.972 84.0399C457.652 82.5199 455.852 81.7599 453.572 81.7599H447.812V99.5199ZM454.292 100.57H446.582V80.6499H453.692C456.232 80.6499 458.292 81.5299 459.872 83.2899C461.452 85.0499 462.242 87.4199 462.242 90.3999C462.242 93.4399 461.512 95.8999 460.052 97.7799C458.592 99.6399 456.672 100.57 454.292 100.57ZM478.052 100.57H464.072V80.6499H477.602V81.7599H465.302V89.5599H476.822V90.6399H465.302V99.4599H478.052V100.57ZM493.913 100.57H492.683V95.3499C492.683 94.0699 492.353 93.1199 491.693 92.4999C491.033 91.8799 489.813 91.5699 488.033 91.5699H480.653V100.57H479.423V80.6499H488.693C490.453 80.6499 491.833 81.1299 492.833 82.0899C493.853 83.0499 494.363 84.3399 494.363 85.9599C494.363 87.2799 493.973 88.4099 493.193 89.3499C492.413 90.2699 491.333 90.8299 489.953 91.0299C491.353 91.1299 492.363 91.5199 492.983 92.1999C493.603 92.8799 493.913 93.8799 493.913 95.1999V100.57ZM480.653 90.4899H488.213C489.893 90.4899 491.133 90.0699 491.933 89.2299C492.753 88.3899 493.163 87.3299 493.163 86.0499C493.163 84.7099 492.753 83.6599 491.933 82.8999C491.133 82.1399 489.993 81.7599 488.513 81.7599H480.653V90.4899ZM512.955 100.57H511.545L509.445 95.3499H498.915L496.785 100.57H495.435L503.565 80.6499H504.885L512.955 100.57ZM509.055 94.2699L504.225 82.2399L499.305 94.2699H509.055ZM515.899 100.57H514.639V81.7599H507.769V80.6499H522.739V81.7599H515.899V100.57ZM538.286 100.57H524.306V80.6499H537.836V81.7599H525.536V89.5599H537.056V90.6399H525.536V99.4599H538.286V100.57ZM439.838 116.53H438.608C438.468 112.91 436.388 111.1 432.368 111.1C430.508 111.1 429.108 111.49 428.168 112.27C427.248 113.03 426.788 114.07 426.788 115.39C426.788 117.01 427.468 118.17 428.828 118.87C429.608 119.29 431.038 119.64 433.118 119.92C435.218 120.18 436.658 120.47 437.438 120.79C439.358 121.57 440.318 123.08 440.318 125.32C440.318 127.18 439.668 128.64 438.368 129.7C437.068 130.74 435.278 131.26 432.998 131.26C430.638 131.26 428.748 130.7 427.328 129.58C425.928 128.44 425.208 126.78 425.168 124.6H426.398C426.418 126.46 427.028 127.86 428.228 128.8C429.448 129.74 431.038 130.21 432.998 130.21C434.918 130.21 436.408 129.78 437.468 128.92C438.548 128.04 439.088 126.83 439.088 125.29C439.088 123.61 438.378 122.45 436.958 121.81C436.218 121.49 434.848 121.22 432.848 121C430.868 120.76 429.408 120.43 428.468 120.01C426.568 119.17 425.618 117.68 425.618 115.54C425.618 113.84 426.178 112.49 427.298 111.49C428.438 110.49 430.128 109.99 432.368 109.99C434.728 109.99 436.548 110.57 437.828 111.73C439.108 112.87 439.778 114.47 439.838 116.53ZM448.531 130.57H447.271V111.76H440.401V110.65H455.371V111.76H448.531V130.57ZM471.428 130.57H470.198V125.35C470.198 124.07 469.868 123.12 469.208 122.5C468.548 121.88 467.328 121.57 465.548 121.57H458.168V130.57H456.938V110.65H466.208C467.968 110.65 469.348 111.13 470.348 112.09C471.368 113.05 471.878 114.34 471.878 115.96C471.878 117.28 471.488 118.41 470.708 119.35C469.928 120.27 468.848 120.83 467.468 121.03C468.868 121.13 469.878 121.52 470.498 122.2C471.118 122.88 471.428 123.88 471.428 125.2V130.57ZM458.168 120.49H465.728C467.408 120.49 468.648 120.07 469.448 119.23C470.268 118.39 470.678 117.33 470.678 116.05C470.678 114.71 470.268 113.66 469.448 112.9C468.648 112.14 467.508 111.76 466.028 111.76H458.168V120.49ZM487.529 130.57H473.549V110.65H487.079V111.76H474.779V119.56H486.299V120.64H474.779V129.46H487.529V130.57ZM503.061 116.53H501.831C501.691 112.91 499.611 111.1 495.591 111.1C493.731 111.1 492.331 111.49 491.391 112.27C490.471 113.03 490.011 114.07 490.011 115.39C490.011 117.01 490.691 118.17 492.051 118.87C492.831 119.29 494.261 119.64 496.341 119.92C498.441 120.18 499.881 120.47 500.661 120.79C502.581 121.57 503.541 123.08 503.541 125.32C503.541 127.18 502.891 128.64 501.591 129.7C500.291 130.74 498.501 131.26 496.221 131.26C493.861 131.26 491.971 130.7 490.551 129.58C489.151 128.44 488.431 126.78 488.391 124.6H489.621C489.641 126.46 490.251 127.86 491.451 128.8C492.671 129.74 494.261 130.21 496.221 130.21C498.141 130.21 499.631 129.78 500.691 128.92C501.771 128.04 502.311 126.83 502.311 125.29C502.311 123.61 501.601 122.45 500.181 121.81C499.441 121.49 498.071 121.22 496.071 121C494.091 120.76 492.631 120.43 491.691 120.01C489.791 119.17 488.841 117.68 488.841 115.54C488.841 113.84 489.401 112.49 490.521 111.49C491.661 110.49 493.351 109.99 495.591 109.99C497.951 109.99 499.771 110.57 501.051 111.73C502.331 112.87 503.001 114.47 503.061 116.53ZM519.291 116.53H518.061C517.921 112.91 515.841 111.1 511.821 111.1C509.961 111.1 508.561 111.49 507.621 112.27C506.701 113.03 506.241 114.07 506.241 115.39C506.241 117.01 506.921 118.17 508.281 118.87C509.061 119.29 510.491 119.64 512.571 119.92C514.671 120.18 516.111 120.47 516.891 120.79C518.811 121.57 519.771 123.08 519.771 125.32C519.771 127.18 519.121 128.64 517.821 129.7C516.521 130.74 514.731 131.26 512.451 131.26C510.091 131.26 508.201 130.7 506.781 129.58C505.381 128.44 504.661 126.78 504.621 124.6H505.851C505.871 126.46 506.481 127.86 507.681 128.8C508.901 129.74 510.491 130.21 512.451 130.21C514.371 130.21 515.861 129.78 516.921 128.92C518.001 128.04 518.541 126.83 518.541 125.29C518.541 123.61 517.831 122.45 516.411 121.81C515.671 121.49 514.301 121.22 512.301 121C510.321 120.76 508.861 120.43 507.921 120.01C506.021 119.17 505.071 117.68 505.071 115.54C505.071 113.84 505.631 112.49 506.751 111.49C507.891 110.49 509.581 109.99 511.821 109.99C514.181 109.99 516.001 110.57 517.281 111.73C518.561 112.87 519.231 114.47 519.291 116.53Z" fill="url(#paint3_linear_141_16)"/>
<defs>
<linearGradient id="paint0_linear_141_16" x1="94.6357" y1="70.5699" x2="94.6357" y2="130.57" gradientUnits="userSpaceOnUse">
<stop stop-color="#008078"/>
<stop offset="1" stop-color="#E0E0E0"/>
</linearGradient>
<linearGradient id="paint1_linear_141_16" x1="94.6357" y1="317.677" x2="94.6357" y2="377.677" gradientUnits="userSpaceOnUse">
<stop stop-color="#008078"/>
<stop offset="1" stop-color="#E0E0E0"/>
</linearGradient>
<linearGradient id="paint2_linear_141_16" x1="484.073" y1="332.677" x2="484.073" y2="362.677" gradientUnits="userSpaceOnUse">
<stop stop-color="#008078"/>
<stop offset="1" stop-color="#E0E0E0"/>
</linearGradient>
<linearGradient id="paint3_linear_141_16" x1="472.5" y1="74.5699" x2="472.5" y2="134.57" gradientUnits="userSpaceOnUse">
<stop stop-color="#008078"/>
<stop offset="1" stop-color="#E0E0E0"/>
</linearGradient>
</defs>
</svg>
