<svg width="517" height="428" viewBox="0 0 517 428" fill="none" xmlns="http://www.w3.org/2000/svg">
<line x1="1.20703" y1="427.375" x2="1.20703" y2="0.949219" stroke="#FCF8EE"/>
<line x1="1.70703" y1="426.875" x2="516.191" y2="426.875" stroke="#FCF8EE"/>
<circle cx="109.021" cy="280.162" r="10" fill="#FCF8EE"/>
<circle cx="109.021" cy="238.162" r="10" fill="#FCF8EE"/>
<circle cx="109.021" cy="221.162" r="10" fill="#FCF8EE"/>
<circle cx="109.021" cy="191.162" r="10" fill="#FCF8EE"/>
<circle cx="109.021" cy="178.162" r="10" fill="#FCF8EE"/>
<circle cx="109.021" cy="168.162" r="10" fill="#FCF8EE"/>
<circle cx="109.021" cy="152.162" r="10" fill="#FCF8EE"/>
<circle cx="109.021" cy="134.162" r="10" fill="#FCF8EE"/>
<circle cx="109.021" cy="107.162" r="10" fill="#FCF8EE"/>
<circle cx="109.021" cy="70.1621" r="10" fill="#FCF8EE"/>
<path d="M423.512 334.355L434.337 353.105H412.686L423.512 334.355Z" fill="#FCF8EE"/>
<path d="M423.512 198.662L434.337 217.412H412.686L423.512 198.662Z" fill="#FCF8EE"/>
<path d="M423.512 137.162L434.337 155.912H412.686L423.512 137.162Z" fill="#FCF8EE"/>
<path d="M423.512 126.162L434.337 144.912H412.686L423.512 126.162Z" fill="#FCF8EE"/>
<path d="M423.512 107.162L434.337 125.912H412.686L423.512 107.162Z" fill="#FCF8EE"/>
<path d="M423.512 91.1621L434.337 109.912H412.686L423.512 91.1621Z" fill="#FCF8EE"/>
<path d="M423.512 86.1621L434.337 104.912H412.686L423.512 86.1621Z" fill="#FCF8EE"/>
<path d="M423.512 79.1621L434.337 97.9121H412.686L423.512 79.1621Z" fill="#FCF8EE"/>
<path d="M423.512 45.1621L434.337 63.9121H412.686L423.512 45.1621Z" fill="#FCF8EE"/>
<path d="M423.512 36.1621L434.337 54.9121H412.686L423.512 36.1621Z" fill="#FCF8EE"/>
<path d="M423.512 6.16214L434.337 24.9121H412.686L423.512 6.16214Z" fill="#FCF8EE"/>
<line x1="108.914" y1="279.674" x2="423.405" y2="210.674" stroke="#FCF8EE"/>
<line x1="109.182" y1="239.689" x2="423.672" y2="346.381" stroke="#FCF8EE"/>
<line x1="108.914" y1="218.434" x2="423.404" y2="149.174" stroke="#FCF8EE"/>
<line x1="108.936" y1="191.55" x2="423.426" y2="136.67" stroke="#FCF8EE"/>
<line x1="108.898" y1="178.118" x2="423.389" y2="98.1775" stroke="#FCF8EE"/>
<line x1="108.945" y1="167.668" x2="423.436" y2="119.168" stroke="#FCF8EE"/>
<line x1="108.948" y1="150.668" x2="423.438" y2="103.668" stroke="#FCF8EE"/>
<line x1="108.848" y1="134.193" x2="423.339" y2="18.193" stroke="#FCF8EE"/>
<line x1="108.944" y1="106.668" x2="423.434" y2="57.1682" stroke="#FCF8EE"/>
<line x1="108.986" y1="70.6634" x2="423.476" y2="48.1634" stroke="#FCF8EE"/>
<line x1="1.70703" y1="151.162" x2="506.717" y2="151.162" stroke="#02E0D2" stroke-width="2" stroke-dasharray="5 5"/>
</svg>
