<svg width="684" height="488" viewBox="0 0 684 488" fill="none" xmlns="http://www.w3.org/2000/svg">
<path d="M237.131 392.035L140.303 487.036C82.2398 430.198 64.0721 376.763 58.0898 293.38H195.111C202.419 335.765 226.17 376.81 237.131 392.035Z" stroke="#FCF8EE"/>
<path d="M445.73 392.035L542.558 487.036C600.622 430.198 618.789 376.763 624.771 293.38H487.75C480.442 335.765 456.692 376.81 445.73 392.035Z" stroke="#FCF8EE"/>
<path d="M194.59 285.948L58.9459 284.656C58.0799 203.408 83.0172 152.778 137.748 89.5867L234.637 186.475C209.833 221.614 197.604 267.431 194.59 285.948Z" stroke="#FCF8EE"/>
<path d="M489.498 285.951L625.142 284.66C626.008 203.411 601.071 152.781 546.34 89.5901L449.451 186.479C474.255 221.617 486.484 267.435 489.498 285.951Z" stroke="#FCF8EE"/>
<path d="M238.612 180.108L143.611 83.2794C200.45 25.2159 253.884 7.04814 337.268 1.06592V138.087C294.882 145.395 253.837 169.146 238.612 180.108Z" stroke="#FCF8EE"/>
<path d="M444.249 180.108L539.25 83.2794C482.411 25.2159 428.977 7.04814 345.594 1.06592V138.087C387.979 145.395 429.024 169.146 444.249 180.108Z" stroke="#FCF8EE"/>
<path d="M139.913 355.888C143.561 355.888 146.585 357.28 148.985 360.064C151.385 362.816 152.585 367.264 152.585 373.408C152.585 379.552 151.385 384 148.985 386.752C146.585 389.504 143.561 390.88 139.913 390.88C136.265 390.88 133.241 389.504 130.841 386.752C128.473 384 127.289 379.552 127.289 373.408C127.289 367.264 128.473 362.816 130.841 360.064C133.241 357.28 136.265 355.888 139.913 355.888ZM139.913 387.424C142.409 387.424 144.425 386.4 145.961 384.352C147.529 382.272 148.313 378.624 148.313 373.408C148.313 368.16 147.529 364.512 145.961 362.464C144.425 360.384 142.409 359.344 139.913 359.344C134.313 359.344 131.513 364.032 131.513 373.408C131.513 382.752 134.313 387.424 139.913 387.424ZM165.674 390.208H161.69V363.712H155.21V360.88H156.026C159.642 360.88 161.69 359.44 162.17 356.56H165.674V390.208Z" fill="#FCF8EE"/>
<path d="M134.913 187.035C138.561 187.035 141.585 188.427 143.985 191.211C146.385 193.963 147.585 198.411 147.585 204.555C147.585 210.699 146.385 215.147 143.985 217.899C141.585 220.651 138.561 222.027 134.913 222.027C131.265 222.027 128.241 220.651 125.841 217.899C123.473 215.147 122.289 210.699 122.289 204.555C122.289 198.411 123.473 193.963 125.841 191.211C128.241 188.427 131.265 187.035 134.913 187.035ZM134.913 218.571C137.409 218.571 139.425 217.547 140.961 215.499C142.529 213.419 143.313 209.771 143.313 204.555C143.313 199.307 142.529 195.659 140.961 193.611C139.425 191.531 137.409 190.491 134.913 190.491C129.313 190.491 126.513 195.179 126.513 204.555C126.513 213.899 129.313 218.571 134.913 218.571ZM172.53 221.355H150.258V219.915C150.258 217.675 150.69 215.755 151.554 214.155C152.418 212.523 153.458 211.195 154.674 210.171C155.89 209.115 157.41 208.011 159.234 206.859L162.93 204.507C164.69 203.355 166.05 202.219 167.01 201.099C168.002 199.979 168.498 198.571 168.498 196.875C168.498 194.827 167.89 193.259 166.674 192.171C165.49 191.051 163.858 190.491 161.778 190.491C159.698 190.491 158.002 191.179 156.69 192.555C155.378 193.931 154.578 195.851 154.29 198.315L150.21 197.931C150.466 195.627 151.138 193.659 152.226 192.027C153.314 190.395 154.674 189.163 156.306 188.331C157.97 187.499 159.794 187.083 161.778 187.083C163.794 187.083 165.618 187.451 167.25 188.187C168.914 188.891 170.242 189.963 171.234 191.403C172.226 192.843 172.722 194.619 172.722 196.731C172.722 198.523 172.37 200.059 171.666 201.339C170.962 202.619 170.114 203.659 169.122 204.459C168.162 205.259 166.898 206.171 165.33 207.195C165.17 207.291 164.994 207.387 164.802 207.483C164.642 207.579 164.45 207.707 164.226 207.867L160.866 210.075C156.834 212.699 154.77 215.243 154.674 217.707H172.53V221.355Z" fill="#FCF8EE"/>
<path d="M250.654 73.7667C254.302 73.7667 257.326 75.1587 259.726 77.9427C262.126 80.6947 263.326 85.1427 263.326 91.2867C263.326 97.4307 262.126 101.879 259.726 104.631C257.326 107.383 254.302 108.759 250.654 108.759C247.006 108.759 243.982 107.383 241.582 104.631C239.214 101.879 238.03 97.4307 238.03 91.2867C238.03 85.1427 239.214 80.6947 241.582 77.9427C243.982 75.1587 247.006 73.7667 250.654 73.7667ZM250.654 105.303C253.15 105.303 255.166 104.279 256.702 102.231C258.27 100.151 259.054 96.5027 259.054 91.2867C259.054 86.0387 258.27 82.3907 256.702 80.3427C255.166 78.2627 253.15 77.2227 250.654 77.2227C245.054 77.2227 242.254 81.9107 242.254 91.2867C242.254 100.631 245.054 105.303 250.654 105.303ZM277.71 89.1747C279.694 89.1747 281.31 88.6467 282.558 87.5907C283.838 86.5347 284.478 85.0787 284.478 83.2227C284.478 81.3667 283.854 79.9107 282.606 78.8547C281.358 77.7667 279.806 77.2227 277.95 77.2227C276.094 77.2227 274.558 77.7667 273.342 78.8547C272.158 79.9427 271.422 81.5267 271.134 83.6067L267.102 83.1747C267.486 80.1987 268.638 77.8947 270.558 76.2627C272.51 74.6307 274.974 73.8147 277.95 73.8147C279.934 73.8147 281.742 74.1827 283.374 74.9187C285.006 75.6227 286.286 76.6947 287.214 78.1347C288.174 79.5427 288.654 81.2387 288.654 83.2227C288.654 84.8867 288.19 86.3587 287.262 87.6387C286.366 88.8867 285.15 89.8307 283.614 90.4707V90.6147C285.47 91.2547 286.958 92.2787 288.078 93.6867C289.198 95.0947 289.758 96.8067 289.758 98.8227C289.758 100.967 289.23 102.791 288.174 104.295C287.118 105.767 285.694 106.887 283.902 107.655C282.142 108.391 280.158 108.759 277.95 108.759C274.654 108.759 271.918 107.879 269.742 106.119C267.598 104.359 266.302 101.831 265.854 98.5347L270.03 98.0547C270.35 100.423 271.198 102.231 272.574 103.479C273.982 104.695 275.774 105.303 277.95 105.303C280.158 105.303 281.966 104.727 283.374 103.575C284.814 102.391 285.534 100.807 285.534 98.8227C285.534 96.7427 284.814 95.1587 283.374 94.0707C281.934 92.9827 280.03 92.4387 277.662 92.4387H274.638V89.1747H277.71Z" fill="#FCF8EE"/>
<path d="M406.042 73.7667C409.69 73.7667 412.714 75.1587 415.114 77.9427C417.514 80.6947 418.714 85.1427 418.714 91.2867C418.714 97.4307 417.514 101.879 415.114 104.631C412.714 107.383 409.69 108.759 406.042 108.759C402.394 108.759 399.37 107.383 396.97 104.631C394.602 101.879 393.418 97.4307 393.418 91.2867C393.418 85.1427 394.602 80.6947 396.97 77.9427C399.37 75.1587 402.394 73.7667 406.042 73.7667ZM406.042 105.303C408.538 105.303 410.554 104.279 412.09 102.231C413.658 100.151 414.442 96.5027 414.442 91.2867C414.442 86.0387 413.658 82.3907 412.09 80.3427C410.554 78.2627 408.538 77.2227 406.042 77.2227C400.442 77.2227 397.642 81.9107 397.642 91.2867C397.642 100.631 400.442 105.303 406.042 105.303ZM445.915 95.7987V99.1107H441.547V108.087H437.563V99.1107H421.387V95.6547L435.499 74.4387H441.547V95.7987H445.915ZM425.467 95.7987H437.563V77.7027H437.419L425.467 95.6547V95.7987Z" fill="#FCF8EE"/>
<path d="M525.554 187.04C529.202 187.04 532.226 188.432 534.626 191.216C537.026 193.968 538.226 198.416 538.226 204.56C538.226 210.704 537.026 215.152 534.626 217.904C532.226 220.656 529.202 222.032 525.554 222.032C521.906 222.032 518.882 220.656 516.482 217.904C514.114 215.152 512.93 210.704 512.93 204.56C512.93 198.416 514.114 193.968 516.482 191.216C518.882 188.432 521.906 187.04 525.554 187.04ZM525.554 218.576C528.05 218.576 530.066 217.552 531.602 215.504C533.17 213.424 533.954 209.776 533.954 204.56C533.954 199.312 533.17 195.664 531.602 193.616C530.066 191.536 528.05 190.496 525.554 190.496C519.954 190.496 517.154 195.184 517.154 204.56C517.154 213.904 519.954 218.576 525.554 218.576ZM552.515 198.608C554.531 198.608 556.387 199.056 558.083 199.952C559.779 200.816 561.139 202.128 562.163 203.888C563.187 205.648 563.699 207.776 563.699 210.272C563.699 212.768 563.171 214.912 562.115 216.704C561.091 218.464 559.699 219.792 557.939 220.688C556.179 221.584 554.243 222.032 552.131 222.032C549.091 222.032 546.563 221.248 544.547 219.68C542.531 218.112 541.203 215.936 540.563 213.152L544.787 212.72C545.203 214.576 546.051 216.016 547.331 217.04C548.611 218.064 550.211 218.576 552.131 218.576C554.211 218.576 555.939 217.872 557.315 216.464C558.723 215.024 559.427 212.96 559.427 210.272C559.427 207.648 558.723 205.616 557.315 204.176C555.907 202.736 554.147 202.016 552.035 202.016C550.531 202.016 549.171 202.304 547.955 202.88C546.771 203.456 545.731 204.208 544.835 205.136H541.043L542.531 187.712H561.539V191.312H545.843L544.931 201.488H545.075C546.803 199.568 549.283 198.608 552.515 198.608Z" fill="#FCF8EE"/>
<path d="M521.554 355.89C525.202 355.89 528.226 357.282 530.626 360.066C533.026 362.818 534.226 367.266 534.226 373.41C534.226 379.554 533.026 384.002 530.626 386.754C528.226 389.506 525.202 390.882 521.554 390.882C517.906 390.882 514.882 389.506 512.482 386.754C510.114 384.002 508.93 379.554 508.93 373.41C508.93 367.266 510.114 362.818 512.482 360.066C514.882 357.282 517.906 355.89 521.554 355.89ZM521.554 387.426C524.05 387.426 526.066 386.402 527.602 384.354C529.17 382.274 529.954 378.626 529.954 373.41C529.954 368.162 529.17 364.514 527.602 362.466C526.066 360.386 524.05 359.346 521.554 359.346C515.954 359.346 513.154 364.034 513.154 373.41C513.154 382.754 515.954 387.426 521.554 387.426ZM550.531 368.754C552.323 368.754 554.067 369.17 555.763 370.002C557.459 370.834 558.835 372.066 559.891 373.698C560.979 375.33 561.523 377.282 561.523 379.554C561.523 381.954 560.963 384.018 559.843 385.746C558.755 387.442 557.347 388.722 555.619 389.586C553.891 390.45 552.083 390.882 550.195 390.882C548.147 390.882 546.259 390.482 544.531 389.682C542.803 388.882 541.363 387.618 540.211 385.89C538.451 383.234 537.571 379.058 537.571 373.362C537.571 366.898 538.771 362.386 541.171 359.826C543.603 357.234 546.611 355.938 550.195 355.938C552.691 355.938 554.899 356.626 556.819 358.002C558.739 359.378 560.083 361.298 560.851 363.762L556.723 364.338C556.275 362.93 555.475 361.73 554.323 360.738C553.203 359.746 551.827 359.25 550.195 359.25C547.795 359.25 545.763 360.21 544.099 362.13C542.467 364.05 541.651 367.506 541.651 372.498V373.026H541.795C542.787 371.618 544.051 370.562 545.587 369.858C547.155 369.122 548.803 368.754 550.531 368.754ZM550.147 387.57C551.427 387.57 552.611 387.266 553.699 386.658C554.787 386.05 555.667 385.154 556.339 383.97C557.011 382.786 557.347 381.394 557.347 379.794C557.347 378.194 557.011 376.818 556.339 375.666C555.667 374.482 554.787 373.586 553.699 372.978C552.611 372.338 551.427 372.018 550.147 372.018C548.707 372.018 547.379 372.338 546.163 372.978C544.979 373.618 544.035 374.53 543.331 375.714C542.627 376.898 542.275 378.258 542.275 379.794C542.275 381.362 542.627 382.738 543.331 383.922C544.035 385.074 544.979 385.97 546.163 386.61C547.379 387.25 548.707 387.57 550.147 387.57Z" fill="#FCF8EE"/>
</svg>
